<?xml version="1.0" encoding="iso-8859-1"?>
<!-- Generator: Adobe Illustrator 18.0.0, SVG Export Plug-In . SVG Version: 6.00 Build 0)  -->
<!DOCTYPE svg PUBLIC "-//W3C//DTD SVG 1.1//EN" "http://www.w3.org/Graphics/SVG/1.1/DTD/svg11.dtd">
<svg version="1.1" id="Capa_1" xmlns="http://www.w3.org/2000/svg" xmlns:xlink="http://www.w3.org/1999/xlink" x="0px" y="0px"
	 viewBox="0 0 297.5 297.5" style="enable-background:new 0 0 297.5 297.5;" xml:space="preserve">
<g>
	<g id="XMLID_28_">
		<g>
			<rect x="184.98" y="28.91" style="fill:#CDD9DD;" width="66.04" height="14.62"/>
			<path style="fill:#98D577;" d="M277.25,228v19.26c0,11.76-9.57,21.33-21.33,21.33h-75.83c-11.77,0-21.34-9.57-21.34-21.33V228
				H277.25z"/>
			<path d="M297.25,84.87v162.39c0,22.79-18.54,41.33-41.33,41.33h-75.83c-22.8,0-41.34-18.54-41.34-41.33V84.87
				c0-17.47,10.89-32.42,26.23-38.47V18.91c0-5.53,4.48-10,10-10h86.04c5.52,0,10,4.47,10,10V46.4
				C286.36,52.45,297.25,67.4,297.25,84.87z M277.25,247.26V228h-118.5v19.26c0,11.76,9.57,21.33,21.34,21.33h75.83
				C267.68,268.59,277.25,259.02,277.25,247.26z M277.25,208v-83.87h-118.5V208H277.25z M277.25,104.13V84.87
				c0-11.77-9.57-21.34-21.33-21.34h-75.83c-11.77,0-21.34,9.57-21.34,21.34v19.26H277.25z M251.02,43.53V28.91h-66.04v14.62H251.02
				z"/>
			<path style="fill:#00C08D;" d="M277.25,124.13V208h-118.5v-83.87H277.25z M248.46,166.06c0-5.52-4.47-10-10-10H228V145.6
				c0-5.52-4.47-10-10-10c-5.52,0-10,4.48-10,10v10.46h-10.46c-5.52,0-10,4.48-10,10s4.48,10,10,10H208v10.46c0,5.52,4.48,10,10,10
				c5.53,0,10-4.48,10-10v-10.46h10.46C243.99,176.06,248.46,171.58,248.46,166.06z"/>
			<path style="fill:#98D577;" d="M277.25,84.87v19.26h-118.5V84.87c0-11.77,9.57-21.34,21.34-21.34h75.83
				C267.68,63.53,277.25,73.1,277.25,84.87z"/>
			<path d="M238.46,156.06c5.53,0,10,4.48,10,10s-4.47,10-10,10H228v10.46c0,5.52-4.47,10-10,10c-5.52,0-10-4.48-10-10v-10.46
				h-10.46c-5.52,0-10-4.48-10-10s4.48-10,10-10H208V145.6c0-5.52,4.48-10,10-10c5.53,0,10,4.48,10,10v10.46H238.46z"/>
			<path d="M124.13,86.93v175.58c0,14.38-11.7,26.08-26.09,26.08h-71.7c-14.39,0-26.09-11.7-26.09-26.08V86.93
				c0-14.39,11.7-26.09,26.09-26.09h71.7C112.43,60.84,124.13,72.54,124.13,86.93z M104.13,262.51V86.93c0-3.36-2.73-6.09-6.09-6.09
				h-71.7c-3.36,0-6.09,2.73-6.09,6.09v175.58c0,3.35,2.73,6.08,6.09,6.08h71.7C101.4,268.59,104.13,265.86,104.13,262.51z"/>
			<path style="fill:#ACBFC7;" d="M104.13,86.93v175.58c0,3.35-2.73,6.08-6.09,6.08h-71.7c-3.36,0-6.09-2.73-6.09-6.08V86.93
				c0-3.36,2.73-6.09,6.09-6.09h71.7C101.4,80.84,104.13,83.57,104.13,86.93z M89.5,105.47c0-2.63-1.06-5.21-2.93-7.07
				c-1.86-1.86-4.43-2.93-7.07-2.93c-2.63,0-5.21,1.07-7.07,2.93s-2.93,4.44-2.93,7.07c0,2.63,1.07,5.21,2.93,7.07
				s4.44,2.93,7.07,2.93s5.21-1.07,7.07-2.93C88.44,110.68,89.5,108.1,89.5,105.47z M89.5,140.09c0-2.63-1.06-5.21-2.93-7.07
				c-1.86-1.86-4.44-2.93-7.07-2.93s-5.21,1.07-7.07,2.93s-2.93,4.44-2.93,7.07c0,2.64,1.07,5.21,2.93,7.07
				c1.86,1.87,4.44,2.93,7.07,2.93s5.21-1.06,7.07-2.93C88.44,145.3,89.5,142.73,89.5,140.09z M89.5,209.34
				c0-2.63-1.06-5.21-2.93-7.07c-1.86-1.86-4.43-2.93-7.07-2.93c-2.63,0-5.21,1.07-7.07,2.93s-2.93,4.44-2.93,7.07
				c0,2.64,1.07,5.21,2.93,7.07c1.87,1.87,4.44,2.94,7.07,2.94s5.21-1.07,7.07-2.94C88.44,214.55,89.5,211.98,89.5,209.34z
				 M89.5,243.97c0-2.63-1.06-5.21-2.93-7.07c-1.86-1.86-4.44-2.93-7.07-2.93s-5.21,1.07-7.07,2.93s-2.93,4.44-2.93,7.07
				s1.07,5.21,2.93,7.07s4.44,2.93,7.07,2.93c2.64,0,5.21-1.07,7.07-2.93C88.44,249.18,89.5,246.6,89.5,243.97z M89.5,174.72
				c0-2.63-1.07-5.21-2.93-7.07s-4.44-2.93-7.07-2.93s-5.21,1.07-7.07,2.93s-2.93,4.44-2.93,7.07s1.07,5.21,2.93,7.07
				s4.44,2.93,7.07,2.93s5.21-1.07,7.07-2.93S89.5,177.35,89.5,174.72z M54.88,105.47c0-2.63-1.07-5.21-2.93-7.07
				s-4.44-2.93-7.07-2.93c-2.64,0-5.21,1.07-7.07,2.93c-1.87,1.86-2.93,4.44-2.93,7.07c0,2.63,1.06,5.21,2.93,7.07
				c1.86,1.86,4.44,2.93,7.07,2.93c2.63,0,5.21-1.07,7.07-2.93S54.88,108.1,54.88,105.47z M54.88,140.09c0-2.63-1.07-5.2-2.93-7.07
				c-1.86-1.86-4.44-2.93-7.07-2.93c-2.63,0-5.21,1.07-7.07,2.93c-1.87,1.86-2.93,4.44-2.93,7.07c0,2.64,1.06,5.21,2.93,7.07
				c1.86,1.87,4.44,2.93,7.07,2.93c2.63,0,5.21-1.06,7.07-2.93C53.81,145.3,54.88,142.73,54.88,140.09z M54.88,174.72
				c0-2.63-1.07-5.21-2.93-7.07s-4.44-2.93-7.07-2.93c-2.64,0-5.21,1.07-7.07,2.93c-1.86,1.86-2.93,4.43-2.93,7.07
				c0,2.63,1.07,5.21,2.93,7.07c1.86,1.86,4.44,2.93,7.07,2.93c2.63,0,5.2-1.07,7.07-2.93C53.81,179.93,54.88,177.35,54.88,174.72z
				 M54.88,209.34c0-2.63-1.07-5.2-2.93-7.07c-1.86-1.86-4.44-2.93-7.07-2.93c-2.64,0-5.21,1.07-7.07,2.93
				c-1.87,1.86-2.93,4.44-2.93,7.07c0,2.64,1.06,5.21,2.93,7.07c1.86,1.87,4.44,2.94,7.07,2.94c2.63,0,5.21-1.07,7.07-2.94
				C53.81,214.55,54.88,211.97,54.88,209.34z M54.88,243.97c0-2.64-1.07-5.21-2.93-7.07s-4.44-2.93-7.07-2.93
				c-2.63,0-5.21,1.07-7.07,2.93c-1.86,1.86-2.93,4.44-2.93,7.07s1.07,5.21,2.93,7.07c1.86,1.86,4.43,2.93,7.07,2.93
				c2.63,0,5.21-1.07,7.07-2.93S54.88,246.6,54.88,243.97z"/>
			<path d="M86.57,98.4c1.87,1.86,2.93,4.44,2.93,7.07c0,2.63-1.06,5.21-2.93,7.07c-1.86,1.86-4.44,2.93-7.07,2.93
				s-5.21-1.07-7.07-2.93s-2.93-4.44-2.93-7.07c0-2.63,1.07-5.21,2.93-7.07s4.44-2.93,7.07-2.93C82.14,95.47,84.71,96.54,86.57,98.4
				z"/>
			<path d="M86.57,133.02c1.87,1.86,2.93,4.44,2.93,7.07c0,2.64-1.06,5.21-2.93,7.07c-1.86,1.87-4.44,2.93-7.07,2.93
				s-5.21-1.06-7.07-2.93c-1.86-1.86-2.93-4.43-2.93-7.07c0-2.63,1.07-5.21,2.93-7.07s4.44-2.93,7.07-2.93
				S84.71,131.16,86.57,133.02z"/>
			<path d="M86.57,202.27c1.87,1.86,2.93,4.44,2.93,7.07c0,2.64-1.06,5.21-2.93,7.07c-1.86,1.87-4.44,2.94-7.07,2.94
				s-5.2-1.07-7.07-2.94c-1.86-1.86-2.93-4.43-2.93-7.07c0-2.63,1.07-5.21,2.93-7.07s4.44-2.93,7.07-2.93
				C82.14,199.34,84.71,200.41,86.57,202.27z"/>
			<path d="M86.57,236.9c1.87,1.86,2.93,4.44,2.93,7.07s-1.06,5.21-2.93,7.07c-1.86,1.86-4.43,2.93-7.07,2.93
				c-2.63,0-5.21-1.07-7.07-2.93s-2.93-4.44-2.93-7.07s1.07-5.21,2.93-7.07s4.44-2.93,7.07-2.93S84.71,235.04,86.57,236.9z"/>
			<path d="M86.57,167.65c1.86,1.86,2.93,4.44,2.93,7.07s-1.07,5.21-2.93,7.07s-4.44,2.93-7.07,2.93s-5.21-1.07-7.07-2.93
				s-2.93-4.44-2.93-7.07s1.07-5.21,2.93-7.07s4.44-2.93,7.07-2.93S84.71,165.79,86.57,167.65z"/>
			<path d="M51.95,98.4c1.86,1.86,2.93,4.44,2.93,7.07c0,2.63-1.07,5.21-2.93,7.07s-4.44,2.93-7.07,2.93
				c-2.63,0-5.21-1.07-7.07-2.93c-1.87-1.86-2.93-4.44-2.93-7.07c0-2.63,1.06-5.21,2.93-7.07c1.86-1.86,4.43-2.93,7.07-2.93
				C47.51,95.47,50.09,96.54,51.95,98.4z"/>
			<path d="M51.95,133.02c1.86,1.87,2.93,4.44,2.93,7.07c0,2.64-1.07,5.21-2.93,7.07c-1.86,1.87-4.44,2.93-7.07,2.93
				c-2.63,0-5.21-1.06-7.07-2.93c-1.87-1.86-2.93-4.43-2.93-7.07c0-2.63,1.06-5.21,2.93-7.07c1.86-1.86,4.44-2.93,7.07-2.93
				C47.51,130.09,50.09,131.16,51.95,133.02z"/>
			<path d="M51.95,167.65c1.86,1.86,2.93,4.44,2.93,7.07s-1.07,5.21-2.93,7.07c-1.87,1.86-4.44,2.93-7.07,2.93
				c-2.63,0-5.21-1.07-7.07-2.93c-1.86-1.86-2.93-4.44-2.93-7.07c0-2.64,1.07-5.21,2.93-7.07c1.86-1.86,4.43-2.93,7.07-2.93
				C47.51,164.72,50.09,165.79,51.95,167.65z"/>
			<path d="M51.95,202.27c1.86,1.87,2.93,4.44,2.93,7.07c0,2.63-1.07,5.21-2.93,7.07c-1.86,1.87-4.44,2.94-7.07,2.94
				c-2.63,0-5.21-1.07-7.07-2.94c-1.87-1.86-2.93-4.43-2.93-7.07c0-2.63,1.06-5.21,2.93-7.07c1.86-1.86,4.43-2.93,7.07-2.93
				C47.51,199.34,50.09,200.41,51.95,202.27z"/>
			<path d="M51.95,236.9c1.86,1.86,2.93,4.43,2.93,7.07c0,2.63-1.07,5.21-2.93,7.07s-4.44,2.93-7.07,2.93
				c-2.64,0-5.21-1.07-7.07-2.93c-1.86-1.86-2.93-4.44-2.93-7.07s1.07-5.21,2.93-7.07c1.86-1.86,4.44-2.93,7.07-2.93
				C47.51,233.97,50.09,235.04,51.95,236.9z"/>
		</g>
		<g>
		</g>
	</g>
</g>
<g>
</g>
<g>
</g>
<g>
</g>
<g>
</g>
<g>
</g>
<g>
</g>
<g>
</g>
<g>
</g>
<g>
</g>
<g>
</g>
<g>
</g>
<g>
</g>
<g>
</g>
<g>
</g>
<g>
</g>
</svg>
